<svg xmlns="http://www.w3.org/2000/svg" version="1.1" xmlns:xlink="http://www.w3.org/1999/xlink" width="1000" height="1000"><svg width="1000" height="1000" viewBox="0 0 1000 1000" fill="none" xmlns="http://www.w3.org/2000/svg">
<path d="M474.08 133.639C522.897 84.8231 602.061 84.8226 650.879 133.639L758.626 241.386C766.432 249.199 770.833 259.801 770.833 270.846V312.513H812.5L816.61 312.716C826.146 313.664 835.123 317.884 841.959 324.72L866.374 349.093C915.192 397.908 915.183 477.074 866.374 525.891L644.043 748.222C601.816 790.451 534.983 793.05 489.705 756.075L480.957 748.182C468.478 735.692 448.237 735.695 435.75 748.182L321.126 862.765C270.346 913.55 188.041 913.569 137.248 862.806C86.4446 812.019 86.4118 729.641 137.207 678.846L251.831 564.222C264.299 551.747 264.304 531.533 251.831 519.056C206.769 474.044 206.756 401.006 251.79 355.97L474.08 133.639ZM310.71 414.889C298.228 427.371 298.224 447.624 310.71 460.096C355.762 505.108 355.78 578.104 310.75 623.141L196.126 737.806C177.902 756.046 177.898 785.602 196.126 803.846C214.375 822.088 243.964 822.09 262.207 803.846L376.831 689.262V689.222C421.869 644.197 494.9 644.209 539.917 689.262C552.394 701.752 572.644 701.784 585.124 689.303L628.581 645.846L354.167 371.432L310.71 414.889ZM591.96 192.558C575.688 176.288 549.315 176.291 533.04 192.558L413.086 312.513L687.5 586.927L807.454 466.972C823.715 450.703 823.707 424.324 807.454 408.053H807.414L795.207 395.846H729.167C706.159 395.846 687.507 377.185 687.5 354.179V288.099L591.96 192.558Z" fill="black"></path>
</svg><style>@media (prefers-color-scheme: light) { :root { filter: none; } }
@media (prefers-color-scheme: dark) { :root { filter: none; } }
</style></svg>